<svg fill="none" width="40" viewBox="0 0 500 450" preserveAspectRatio="xMidYMid meet" xmlns="http://www.w3.org/2000/svg">
<path id="logo" d="M277.456 222.914L210.377 359.916C208.08 364.626 209.809 370.311 214.34 372.945L336.881 444.171C341.865 447.068 348.26 445.162 350.844 440.01L478.86 184.82M406.354 335.203L462.572 366.777C465.928 368.662 465.985 373.474 462.673 375.438L347.824 443.527M341.861 100.702L220.708 170.385C213.4 174.588 213.343 185.113 220.606 189.396L341.841 260.876C345.271 262.898 349.525 262.909 352.965 260.905L473.773 190.523C481.047 186.285 481.059 175.78 473.794 171.526L352.904 100.745C349.497 98.7502 345.283 98.7339 341.861 100.702Z" stroke="#f5f5f7" stroke-width="20">
</path>
</svg>