<svg width="30" height="30" viewBox="0 0 240 240" fill="none" xmlns="http://www.w3.org/2000/svg">
<path d="M163.784 146.293H154.573L151.308 143.145C163.13 129.433 169.627 111.928 169.614 93.8241C169.614 78.8345 165.169 64.1816 156.841 51.7183C148.514 39.255 136.677 29.541 122.828 23.8047C108.98 18.0685 93.7414 16.5676 79.0399 19.4919C64.3384 22.4162 50.8342 29.6344 40.235 40.2336C29.6358 50.8328 22.4177 64.337 19.4934 79.0385C16.5691 93.74 18.0699 108.978 23.8062 122.827C29.5424 136.676 39.2564 148.512 51.7198 156.84C64.1831 165.168 78.836 169.612 93.8255 169.612C112.598 169.612 129.854 162.733 143.146 151.307L146.294 154.571V163.783L204.593 221.965L221.966 204.592L163.784 146.293V146.293ZM93.8255 146.293C64.7927 146.293 41.3566 122.857 41.3566 93.8241C41.3566 64.7913 64.7927 41.3552 93.8255 41.3552C122.858 41.3552 146.294 64.7913 146.294 93.8241C146.294 122.857 122.858 146.293 93.8255 146.293ZM99.6554 64.6747H87.9956V87.9942H64.6761V99.6539H87.9956V122.973H99.6554V99.6539H122.975V87.9942H99.6554V64.6747Z" fill="#f5f5f7"/>
</svg>
