<svg width="70" height="25" viewBox="40 0 60 60" fill="transparent" xmlns="http://www.w3.org/2000/svg">
<path d="M19.7313 22.3996L9.42522 43.4484C9.0723 44.1721 9.33797 45.0456 10.0341 45.4502L28.8612 56.3934C29.627 56.8384 30.6094 56.5456 31.0066 55.754L50.6749 16.5468M39.535 39.6515L48.1723 44.5026C48.688 44.7922 48.6967 45.5315 48.1879 45.8332L30.5425 56.2944M29.6264 3.62298L11.0126 14.329C9.88967 14.9748 9.88096 16.5919 10.9968 17.2498L29.6233 28.2319C30.1503 28.5426 30.8039 28.5443 31.3324 28.2364L49.8932 17.423C51.0109 16.7719 51.0126 15.1579 49.8964 14.5043L31.3229 3.62954C30.7996 3.32311 30.1521 3.32061 29.6264 3.62298Z" stroke="#ccc" stroke-width="1"/>
</svg>
